<?xml version="1.0" encoding="UTF-8" standalone="no"?>
<svg
   xmlns:dc="http://purl.org/dc/elements/1.1/"
   xmlns:cc="http://creativecommons.org/ns#"
   xmlns:rdf="http://www.w3.org/1999/02/22-rdf-syntax-ns#"
   xmlns:svg="http://www.w3.org/2000/svg"
   xmlns="http://www.w3.org/2000/svg"
   xmlns:xlink="http://www.w3.org/1999/xlink"
   xmlns:sodipodi="http://sodipodi.sourceforge.net/DTD/sodipodi-0.dtd"
   xmlns:inkscape="http://www.inkscape.org/namespaces/inkscape"
   sodipodi:docname="sockpuppet-logo-purple.svg"
   inkscape:version="1.0 (4035a4fb49, 2020-05-01)"
   id="svg8"
   version="1.1"
   viewBox="0 0 135.96822 135.96822"
   height="135.96822mm"
   width="135.96822mm">
  <defs
     id="defs2">
    <pattern
       inkscape:collect="always"
       patternUnits="userSpaceOnUse"
       width="2"
       height="1"
       patternTransform="translate(0,0) scale(10,10)"
       id="Strips1_1"
       inkscape:stockid="Stripes 1:1">
      <rect
         style="fill:black;stroke:none"
         x="0"
         y="-0.5"
         width="1"
         height="2"
         id="rect1863" />
    </pattern>
    <rect
       x="-5.6241841"
       y="-19.342503"
       width="92.207985"
       height="14.833459"
       id="rect853" />
    <linearGradient
       id="linearGradient895"
       inkscape:collect="always">
      <stop
         id="stop891"
         offset="0"
         style="stop-color:#838383;stop-opacity:1;" />
      <stop
         id="stop893"
         offset="1"
         style="stop-color:#838383;stop-opacity:0;" />
    </linearGradient>
    <linearGradient
       gradientUnits="userSpaceOnUse"
       y2="36.404186"
       x2="49.352306"
       y1="30.356565"
       x1="37.535404"
       id="linearGradient897"
       xlink:href="#linearGradient895"
       inkscape:collect="always" />
  </defs>
  <sodipodi:namedview
     inkscape:window-maximized="1"
     inkscape:window-y="1432"
     inkscape:window-x="-8"
     inkscape:window-height="1369"
     inkscape:window-width="3440"
     showgrid="false"
     inkscape:document-rotation="0"
     inkscape:current-layer="layer1"
     inkscape:document-units="mm"
     inkscape:cy="115.41927"
     inkscape:cx="224.97214"
     inkscape:zoom="3.959798"
     inkscape:pageshadow="2"
     inkscape:pageopacity="0.0"
     borderopacity="1.0"
     bordercolor="#666666"
     pagecolor="#ffffff"
     id="base"
     fit-margin-top="0"
     fit-margin-left="0"
     fit-margin-right="0"
     fit-margin-bottom="0" />
  <metadata
     id="metadata5">
    <rdf:RDF>
      <cc:Work
         rdf:about="">
        <dc:format>image/svg+xml</dc:format>
        <dc:type
           rdf:resource="http://purl.org/dc/dcmitype/StillImage" />
        <dc:title></dc:title>
      </cc:Work>
    </rdf:RDF>
  </metadata>
  <g
     id="layer1"
     inkscape:groupmode="layer"
     inkscape:label="Layer 1"
     transform="translate(33.451045,19.90787)">
    <path
       style="fill:#ffffff;fill-opacity:1;stroke:#000000;stroke-width:1;stroke-linecap:round;stroke-miterlimit:4;stroke-dasharray:none;stroke-opacity:1"
       id="path837-6"
       sodipodi:type="arc"
       sodipodi:cx="36.482292"
       sodipodi:cy="6.5481033"
       sodipodi:rx="7.1494598"
       sodipodi:ry="7.0826426"
       sodipodi:start="0"
       sodipodi:end="6.2829235"
       sodipodi:open="true"
       sodipodi:arc-type="arc"
       d="M 43.631752,6.5481033 A 7.1494598,7.0826426 0 0 1 36.48276,13.630746 7.1494598,7.0826426 0 0 1 29.332832,6.5490305 7.1494598,7.0826426 0 0 1 36.480888,-0.53453909 7.1494598,7.0826426 0 0 1 43.631752,6.546249" />
    <path
       style="fill:#000000;fill-opacity:1;stroke:#000000;stroke-width:1;stroke-linecap:round;stroke-miterlimit:4;stroke-dasharray:none;stroke-opacity:1"
       id="path839-2"
       sodipodi:type="arc"
       sodipodi:cx="39.099632"
       sodipodi:cy="3.0921829"
       sodipodi:rx="2.4054255"
       sodipodi:ry="2.505652"
       sodipodi:start="0"
       sodipodi:end="6.2829235"
       sodipodi:open="true"
       sodipodi:arc-type="arc"
       d="M 41.505058,3.0921829 A 2.4054255,2.505652 0 0 1 39.09979,5.5978348 2.4054255,2.505652 0 0 1 36.694207,3.0925109 2.4054255,2.505652 0 0 1 39.09916,0.58653097 2.4054255,2.505652 0 0 1 41.505058,3.0915269" />
    <path
       sodipodi:nodetypes="ssssssssssssss"
       id="path833"
       d="M 16.036172,92.207986 C 15.217432,89.640391 11.301738,61.040128 9.9779034,48.272946 8.7632132,36.558359 15.929294,28.283568 23.786988,19.510675 30.679135,11.815789 41.947104,5.1393605 52.117558,6.9490076 c 3.907871,0.6953344 8.827959,4.3256664 8.552625,8.2853554 -0.48207,6.932838 -5.211858,2.668921 -7.866286,9.091589 -1.114244,2.69603 -1.908398,5.494759 -0.200452,8.652851 0.46556,0.860848 1.306882,2.150102 4.057694,2.033504 3.323302,-0.140864 2.739513,6.013564 -0.868625,9.2208 -1.075739,0.956213 -8.511712,8.614765 -10.356696,13.764379 -3.638964,10.156869 0.17737,29.234082 -1.336346,32.339613 -1.483827,3.044211 -5.257883,3.634598 -8.520201,4.543581 -4.304747,1.199436 -9.605192,2.192341 -13.93044,1.069078 -2.176333,-0.565192 -4.929551,-1.599523 -5.612659,-3.741772 z"
       style="fill:#dddddd;fill-opacity:1;stroke:#000000;stroke-width:1;stroke-linecap:butt;stroke-linejoin:miter;stroke-miterlimit:4;stroke-dasharray:none;stroke-opacity:1" />
    <path
       sodipodi:nodetypes="ssssssss"
       id="path835"
       d="m 54.971913,35.222656 c 2.474148,1.079699 -4.329301,2.641231 -6.945313,3.307292 -3.385619,0.86201 -6.453977,2.598011 -8.586512,1.693192 -2.239761,-0.950315 -1.941838,-9.172719 -1.335364,-10.764621 1.213156,-3.18435 5.757351,-6.096175 9.296692,-7.52235 2.436046,-0.981603 8.952773,-2.652961 7.357884,-1.005737 -0.77358,0.798964 -3.137824,4.556489 -3.245509,7.460976 -0.157296,4.242583 1.945961,6.171353 3.458122,6.831248 z"
       style="fill:url(#linearGradient897);fill-opacity:1;stroke:#000000;stroke-width:0.264583px;stroke-linecap:butt;stroke-linejoin:miter;stroke-opacity:1" />
    <path
       d="m 28.664657,16.303442 a 7.1494594,7.0826426 0 0 1 -7.148991,7.082643 7.1494594,7.0826426 0 0 1 -7.149928,-7.081716 7.1494594,7.0826426 0 0 1 7.148056,-7.0835694 7.1494594,7.0826426 0 0 1 7.150863,7.0807884"
       sodipodi:arc-type="arc"
       sodipodi:open="true"
       sodipodi:end="6.2829235"
       sodipodi:start="0"
       sodipodi:ry="7.0826426"
       sodipodi:rx="7.1494594"
       sodipodi:cy="16.303442"
       sodipodi:cx="21.515198"
       sodipodi:type="arc"
       id="path837"
       style="fill:#ffffff;fill-opacity:1;stroke:#000000;stroke-width:1;stroke-linecap:round;stroke-miterlimit:4;stroke-dasharray:none;stroke-opacity:1" />
    <path
       d="m 19.844762,14.53278 a 2.4054255,2.505652 0 0 1 -2.405268,2.505652 2.4054255,2.505652 0 0 1 -2.405583,-2.505324 2.4054255,2.505652 0 0 1 2.404953,-2.50598 2.4054255,2.505652 0 0 1 2.405898,2.504996"
       sodipodi:arc-type="arc"
       sodipodi:open="true"
       sodipodi:end="6.2829235"
       sodipodi:start="0"
       sodipodi:ry="2.505652"
       sodipodi:rx="2.4054255"
       sodipodi:cy="14.53278"
       sodipodi:cx="17.439337"
       sodipodi:type="arc"
       id="path839"
       style="fill:#000000;fill-opacity:1;stroke:#000000;stroke-width:1;stroke-linecap:round;stroke-miterlimit:4;stroke-dasharray:none;stroke-opacity:1" />
    <path
       d="m 15.617577,15.213541 a 0.45128193,0.64027005 0 0 1 -0.451252,0.64027 0.45128193,0.64027005 0 0 1 -0.451312,-0.640186 0.45128193,0.64027005 0 0 1 0.451193,-0.640354 0.45128193,0.64027005 0 0 1 0.451371,0.640102"
       sodipodi:arc-type="arc"
       sodipodi:open="true"
       sodipodi:end="6.2829235"
       sodipodi:start="0"
       sodipodi:ry="0.64027005"
       sodipodi:rx="0.45128193"
       sodipodi:cy="15.213541"
       sodipodi:cx="15.166295"
       sodipodi:type="arc"
       id="path870"
       style="fill:#ffffff;fill-opacity:1;stroke:#000000;stroke-width:0;stroke-linecap:round;stroke-miterlimit:4;stroke-dasharray:none;stroke-opacity:1" />
    <path
       style="fill:#ffffff;fill-opacity:1;stroke:#000000;stroke-width:0;stroke-linecap:round;stroke-miterlimit:4;stroke-dasharray:none;stroke-opacity:1"
       id="path870-4"
       sodipodi:type="arc"
       sodipodi:cx="36.45108"
       sodipodi:cy="3.3545387"
       sodipodi:rx="0.45128196"
       sodipodi:ry="0.64027005"
       sodipodi:start="0"
       sodipodi:end="6.2829235"
       sodipodi:open="true"
       sodipodi:arc-type="arc"
       d="m 36.902362,3.3545387 a 0.45128196,0.64027005 0 0 1 -0.451252,0.64027 0.45128196,0.64027005 0 0 1 -0.451312,-0.6401862 0.45128196,0.64027005 0 0 1 0.451194,-0.6403539 0.45128196,0.64027005 0 0 1 0.45137,0.6401025" />
    <path
       sodipodi:nodetypes="sssssss"
       id="path887"
       d="m 11.067267,54.050593 c 0.06451,1.765239 3.000376,-1.452072 4.397331,-2.533158 2.410584,-1.865521 3.463453,-4.902265 3.943041,-6.994528 0.685204,-2.989286 0.280034,-7.052119 -1.391701,-9.122031 -1.128233,-1.396959 -2.001258,-4.102641 -3.173657,-3.851328 -0.715799,0.153437 -3.064725,5.621815 -3.952046,8.99937 -1.103324,4.199765 0.09298,11.201669 0.177032,13.501675 z"
       style="fill:#b1b1b1;fill-opacity:1;stroke:#000000;stroke-width:0.265;stroke-linecap:butt;stroke-linejoin:miter;stroke-miterlimit:4;stroke-dasharray:1.06, 0.53, 0.265, 0.53;stroke-dashoffset:0;stroke-opacity:1" />
    <path
       sodipodi:nodetypes="cssc"
       id="path889"
       d="m 14.274601,78.365324 c 3.340869,0.133636 6.714484,0.742312 10.022607,0.267269 3.848277,-0.552608 7.629508,-1.235261 10.423512,-1.202711 2.918429,0.034 8.418988,-2.405428 8.418988,-2.405428"
       style="fill:none;stroke:#000000;stroke-width:0.264583;stroke-linecap:butt;stroke-linejoin:miter;stroke-miterlimit:4;stroke-dasharray:1.05833, 0.529166, 0.264583, 0.529166;stroke-dashoffset:0;stroke-opacity:1" />
    <path
       id="path901"
       d="m 19.182291,80.73807 0.519718,12.981091"
       style="fill:none;stroke:#000000;stroke-width:0.562611;stroke-linecap:butt;stroke-linejoin:miter;stroke-miterlimit:4;stroke-dasharray:0, 0.562611, 1.12522, 1.68783, 2.25044, 2.81305, 3.37567, 3.93828, 4.50089, 5.0635, 5.62611, 6.18872, 6.75133, 7.31394, 7.87655;stroke-dashoffset:0;stroke-opacity:1" />
    <path
       id="path903"
       d="M 23.906994,80.259502 24.946428,94.79593"
       style="fill:none;stroke:#000000;stroke-width:0.562611;stroke-linecap:butt;stroke-linejoin:miter;stroke-miterlimit:4;stroke-dasharray:0, 0.562611, 1.12522, 1.68783, 2.25044, 2.81305, 3.37567, 3.93828, 4.50089, 5.0635, 5.62611, 6.18872, 6.75133, 7.31394, 7.87655;stroke-dashoffset:0;stroke-opacity:1" />
    <path
       id="path905"
       d="m 30.00186,80.618427 1.370164,12.801629"
       style="fill:none;stroke:#000000;stroke-width:0.562611;stroke-linecap:butt;stroke-linejoin:miter;stroke-miterlimit:4;stroke-dasharray:0, 0.562611, 1.12522, 1.68783, 2.25044, 2.81305, 3.37567, 3.93828, 4.50089, 5.0635, 5.62611, 6.18872, 6.75133, 7.31394, 7.87655;stroke-dashoffset:0;stroke-opacity:1" />
    <path
       id="path907"
       d="m 34.773809,78.345242 2.504093,15.194454"
       style="fill:none;stroke:#000000;stroke-width:0.562611;stroke-linecap:butt;stroke-linejoin:miter;stroke-miterlimit:4;stroke-dasharray:0, 0.562611, 1.12522, 1.68783, 2.25044, 2.81305, 3.37567, 3.93828, 4.50089, 5.0635, 5.62611, 6.18872, 6.75133, 7.31394, 7.87655;stroke-dashoffset:0;stroke-opacity:1" />
    <path
       id="path909"
       d="m 39.970982,77.567572 1.511903,13.459655"
       style="fill:none;stroke:#000000;stroke-width:0.562611;stroke-linecap:butt;stroke-linejoin:miter;stroke-miterlimit:4;stroke-dasharray:0, 0.562611, 1.12522, 1.68783, 2.25044, 2.81305, 3.37567, 3.93828, 4.50089, 5.0635, 5.62611, 6.18872, 6.75133, 7.31394, 7.87655;stroke-dashoffset:0;stroke-opacity:1" />
    <path
       style="fill:none;stroke:#000000;stroke-width:1;stroke-linecap:round;stroke-miterlimit:4;stroke-dasharray:0, 1, 2, 3, 4, 5, 6, 7, 8, 9, 10, 11, 12, 13, 14;stroke-dashoffset:0"
       id="path849"
       sodipodi:type="arc"
       sodipodi:cx="33.463982"
       sodipodi:cy="48.483578"
       sodipodi:rx="56.221291"
       sodipodi:ry="56.221291"
       sodipodi:start="0"
       sodipodi:end="6.2829235"
       sodipodi:open="true"
       sodipodi:arc-type="arc"
       d="M 89.685272,48.483578 A 56.221291,56.221291 0 0 1 33.467661,104.70487 56.221291,56.221291 0 0 1 -22.757308,48.490937 56.221291,56.221291 0 0 1 33.452942,-7.7377118 56.221291,56.221291 0 0 1 89.68527,48.468859" />
    <text
       xml:space="preserve"
       id="text851"
       style="font-style:normal;font-variant:normal;font-weight:normal;font-stretch:normal;font-size:10.5833px;line-height:1.25;font-family:'Permanent Marker';-inkscape-font-specification:'Permanent Marker, Normal';font-variant-ligatures:normal;font-variant-caps:normal;font-variant-numeric:normal;font-variant-east-asian:normal;letter-spacing:0px;word-spacing:0px;white-space:pre;fill:#000000;fill-opacity:1;stroke:none"
       transform="rotate(-120.99102,33.134813,47.609856)"><textPath
         xlink:href="#path849"
         id="textPath860"><tspan
           style="font-style:normal;font-variant:normal;font-weight:normal;font-stretch:normal;font-size:10.5833px;font-family:'Permanent Marker';-inkscape-font-specification:'Permanent Marker, Normal';font-variant-ligatures:normal;font-variant-caps:normal;font-variant-numeric:normal;font-variant-east-asian:normal"
           id="tspan855">Sockpuppet</tspan></textPath></text>
    <path
       style="fill:none;stroke:#000000;stroke-width:2.218;stroke-linecap:round;stroke-miterlimit:4;stroke-dasharray:none;stroke-dashoffset:0"
       id="path863"
       sodipodi:type="arc"
       sodipodi:cx="34.533062"
       sodipodi:cy="48.076237"
       sodipodi:rx="66.875107"
       sodipodi:ry="66.875107"
       sodipodi:start="0"
       sodipodi:end="6.2829235"
       sodipodi:open="true"
       sodipodi:arc-type="arc"
       d="M 101.40817,48.076237 A 66.875107,66.875107 0 0 1 34.537439,114.95134 66.875107,66.875107 0 0 1 -32.342044,48.084991 66.875107,66.875107 0 0 1 34.519931,-18.798869 66.875107,66.875107 0 0 1 101.40817,48.058728" />
    <path
       transform="matrix(0.26458333,0,0,0.26458333,-33.451045,-19.90787)"
       id="path877"
       d="M 236.70996,504.27722 C 159.59623,497.26566 92.412634,457.22996 49.393365,392.65247 34.691639,370.58327 20.197332,336.24792 14.60295,310.23796 8.9576527,283.99129 7.5198454,250.77127 10.912314,224.96715 20.842994,149.43145 64.580668,83.305489 131.01136,43.392228 c 7.16643,-4.305775 13.53839,-7.827272 14.15991,-7.825548 0.62152,0.0017 -1.26361,2.337613 -4.18918,5.190866 -5.48908,5.353395 -6.95167,8.326234 -5.832,11.854017 0.92147,2.903301 3.58809,3.417223 8.58441,1.65442 4.68884,-1.654319 8.12662,-1.98142 8.11599,-0.772229 -0.0123,1.399811 -3.93719,6.736848 -6.22143,8.459854 -1.98461,1.496991 -2.11609,2.028828 -1.06947,4.325902 1.50942,3.312829 3.29539,3.306273 7.25633,-0.02664 5.5459,-4.666564 7.82795,-12.05445 4.83945,-15.667186 -1.79908,-2.174869 -6.46282,-4.920614 -8.35783,-4.920614 -2.60122,0 -0.70337,-1.873592 4.64125,-4.581913 2.7386,-1.387754 4.97927,-3.152745 4.97927,-3.922202 0,-0.769458 -1.39616,-2.283001 -3.10258,-3.363431 l -3.10258,-1.964418 13.33109,-5.268344 c 15.90929,-6.287221 33.44179,-11.226093 51.12642,-14.402211 11.4127,-2.049696 16.22599,-2.3299749 40.23752,-2.3430476 30.3152,-0.016504 38.61496,0.9207056 62.77421,7.0884676 17.13808,4.375286 29.8031,9.105937 47.33242,17.679651 75.1483,36.755565 126.70244,109.934258 136.96834,194.420138 1.54357,12.7032 1.53582,44.5786 -0.0137,56.56854 -7.32675,56.69096 -31.83386,107.07202 -71.26413,146.50283 -20.7685,20.76878 -41.41936,35.3952 -68.36065,48.41787 -23.22203,11.22491 -45.43737,18.06572 -70.75922,21.78905 -15.60351,2.29434 -42.56688,3.24669 -56.37517,1.99117 z m 8.08122,-33.22985 c 0,-2.32193 -1.89327,-3.13854 -7.27658,-3.13854 -7.06018,0 -25.09807,-3.01018 -37.17013,-6.203 -14.51108,-3.83788 -14.58181,-3.8439 -14.94958,-1.27276 -0.26814,1.87453 0.78704,2.42382 9.09088,4.73243 15.7445,4.37725 33.41244,7.38706 45.00211,7.66631 4.57496,0.11024 5.3033,-0.13483 5.3033,-1.78444 z m 62.1924,-4.73012 c 10.50073,-2.69022 28.58739,-8.9821 30.06364,-10.45835 0.65514,-0.65514 0.57287,-1.50679 -0.24022,-2.4865 -1.0744,-1.29458 -2.51994,-1.02087 -11.01836,2.08634 -5.37994,1.96702 -15.58662,5.05182 -22.68152,6.8551 -7.09488,1.80328 -13.17408,3.55297 -13.50931,3.8882 -0.33523,0.33523 -0.332,1.33267 0.007,2.21655 0.71574,1.86519 2.95113,1.5949 17.3786,-2.10134 z m -125.32693,-8.08351 c 0,-1.41359 -1.58347,-2.55888 -5.91316,-4.27683 -6.06993,-2.40845 -8.73406,-2.3547 -8.73406,0.17624 0,1.44282 11.70033,6.86172 13.63706,6.31588 0.55559,-0.15659 1.01016,-1.15347 1.01016,-2.21529 z m -23.73859,-10.38153 c 0,-1.30306 -2.77881,-3.45704 -9.12227,-7.07106 -9.88645,-5.63256 -10.60454,-5.87496 -11.38432,-3.84291 -0.80857,2.10709 0.23273,3.05698 8.86871,8.09023 8.72667,5.08611 11.63788,5.79246 11.63788,2.82374 z m 85.78021,-7.7066 c 12.14175,-2.13676 33.63978,-8.16884 39.25577,-11.01469 5.45311,-2.76329 9.80638,-6.78759 12.06299,-11.15137 1.8176,-3.51486 1.94049,-21.83891 0.31211,-46.54029 -1.94997,-29.57967 -0.87563,-53.53633 3.09749,-69.07108 3.93411,-15.38222 15.69595,-32.57845 38.43125,-56.18783 4.28011,-4.44467 9.02044,-10.55308 10.53405,-13.57424 3.51643,-7.0188 4.49317,-17.36831 2.07961,-22.03562 -2.12604,-4.1113 -2.60999,-4.35617 -10.5572,-5.34176 -5.68314,-0.70481 -7.16667,-1.31641 -9.48393,-3.90987 -4.20079,-4.7015 -6.36815,-13.36623 -5.06885,-20.26448 2.83826,-15.06893 9.13837,-24.11982 19.27786,-27.69504 9.65778,-3.40535 14.30111,-10.37847 14.27897,-21.44342 -0.0282,-14.09984 -16.17997,-29.30207 -34.87774,-32.827319 -3.59454,-0.677709 -10.75764,-0.906308 -17.76327,-0.566887 l -11.73971,0.568787 -0.61772,-4.506767 c -2.96901,-21.661317 -31.17049,-31.143822 -47.89723,-16.105039 -11.34752,10.202397 -13.21145,25.363865 -4.67724,38.045625 1.91913,2.85182 3.36358,5.25349 3.2099,5.33706 -0.15369,0.0835 -1.96892,1.39518 -4.03384,2.91473 l -3.75442,2.76278 -2.01495,-3.94962 c -4.67617,-9.16604 -14.6897,-15.34404 -25.10967,-15.49179 -17.33281,-0.24576 -30.02271,12.035 -29.9149,28.95038 0.0336,5.26876 0.64434,8.35107 2.36125,11.91641 2.52903,5.25179 11.0095,13.54509 14.8318,14.50442 1.32193,0.33178 2.40351,1.00625 2.40351,1.4988 0,0.49256 -2.30645,3.7389 -5.12544,7.2141 -18.51784,22.8284 -28.73104,44.41917 -31.24633,66.05496 -1.29651,11.15216 -0.83205,16.78879 5.64875,68.55295 7.78773,62.20298 15.82434,115.33018 18.10639,119.69497 3.12849,5.98375 10.36691,10.48342 21.81804,13.56292 7.18907,1.93333 25.4631,1.98295 36.1727,0.0982 z m 136.83182,-8.85481 c 10.59139,-7.81043 22.85504,-18.83344 22.85504,-20.54294 0,-3.61427 -3.25309,-2.41245 -9.8347,3.63333 -3.75805,3.4521 -10.8103,9.23267 -15.67165,12.84571 -8.67952,6.45075 -9.51687,7.3423 -8.1654,8.69377 1.48814,1.48814 3.94829,0.43513 10.81671,-4.62987 z m -257.30427,-5.35082 c 0.39729,-1.03534 -0.89183,-2.8176 -3.81978,-5.281 -2.4307,-2.04505 -7.18548,-6.34206 -10.56617,-9.54893 -6.24079,-5.91992 -9.510656,-7.30373 -9.510656,-4.02494 0,1.83934 5.194806,7.22738 15.134936,15.69796 5.86668,4.99933 7.78889,5.69192 8.76167,3.15691 z M 427.8328,383.33775 c 6.48725,-9.28641 13.93812,-21.98015 13.93812,-23.74579 0,-3.97027 -3.66744,-1.71069 -7.34223,4.5237 -2.04677,3.4724 -5.98629,9.69875 -8.7545,13.83632 -3.7918,5.66752 -4.76374,7.84742 -3.94094,8.83884 1.73169,2.08656 2.5555,1.62019 6.09955,-3.45307 z m -343.655875,1.44799 c 0,-0.59652 -2.2076,-4.29807 -4.905778,-8.22568 -2.698179,-3.9276 -7.056365,-10.89129 -9.68486,-15.47486 -4.854423,-8.46514 -6.175598,-9.66377 -7.33152,-6.65148 -0.97364,2.53726 10.859729,23.53235 17.087489,30.3171 1.979698,2.15675 4.834669,2.17738 4.834669,0.0349 z M 453.24687,335.83139 c 1.93549,-3.76962 6.7068,-19.07774 6.7068,-21.51789 0,-1.24288 -0.68998,-1.96816 -1.87235,-1.96816 -1.4995,0 -2.62003,2.33242 -5.62703,11.71287 -2.06508,6.44209 -3.50963,12.35148 -3.21012,13.13198 0.85103,2.21773 2.44401,1.67696 4.0027,-1.3588 z M 51.84111,320.6791 c -0.0061,-0.97227 -0.700663,-4.04061 -1.543664,-6.81853 -1.719943,-5.66768 -5.065938,-22.52804 -6.049141,-30.48142 -0.647007,-5.2338 -2.46761,-7.35471 -4.349033,-5.06641 -1.254223,1.52546 1.00691,17.47668 4.537837,32.0123 1.41708,5.83363 2.782844,10.94752 3.035033,11.36421 0.935899,1.54637 4.379856,0.7501 4.368968,-1.01015 z m 412.54421,-24.74874 c 0.34466,-1.25006 0.91896,-5.56846 1.27619,-9.59645 0.61145,-6.89433 0.52962,-7.3236 -1.39621,-7.3236 -1.77319,0 -2.19667,1.01483 -3.17868,7.61741 -0.62313,4.18956 -1.13295,8.50797 -1.13295,9.59645 0,2.82455 3.63836,2.58334 4.43165,-0.29381 z m 2.92011,-28.28427 c 0.88376,-7.43817 0.7979,-17.36925 -0.16284,-18.83502 -0.50826,-0.77543 -1.63435,-1.13734 -2.50243,-0.80422 -1.3049,0.50073 -1.57833,2.62621 -1.57833,12.26903 0,10.67014 0.15897,11.66336 1.86676,11.66336 1.44273,0 1.98262,-0.97516 2.37684,-4.29315 z M 44.250629,232.79583 c 1.692,-11.21799 5.883093,-30.21623 8.163939,-37.00716 2.762044,-8.22365 2.878107,-11.22762 0.433795,-11.22762 -2.941446,0 -11.074981,28.9239 -12.71167,45.20432 -0.649854,6.46422 -0.575622,6.81853 1.428556,6.81853 1.667869,0 2.234611,-0.79946 2.68538,-3.78807 z m 419.543431,-13.0742 c 0.29616,-1.99817 -3.86112,-19.79977 -5.83852,-25.00073 -0.94449,-2.4842 -3.40043,-3.4625 -4.44585,-1.77098 -0.27626,0.447 0.83293,5.78818 2.46487,11.86929 1.63194,6.08111 2.96757,11.98843 2.96806,13.12738 0.002,4.26249 4.25226,5.81763 4.85144,1.77504 z m -13.94192,-46.29245 c 0,-2.91073 -9.07333,-19.67779 -10.64844,-19.67779 -3.03074,0 -2.53076,2.92169 2.05283,11.9959 3.47197,6.87351 5.15678,9.21731 6.62575,9.21731 1.08906,0 1.96986,-0.68654 1.96986,-1.53542 z m -16.50632,-29.33003 c 0.73867,-1.92495 -6.37264,-12.57111 -8.39713,-12.57111 -2.86856,0 -2.41234,2.94451 1.31329,8.47641 3.85951,5.73067 5.98467,6.95908 7.08384,4.0947 z M 79.168594,139.8618 c 6.110531,-7.19377 7.697112,-11.75886 3.886239,-11.18194 -1.265541,0.19159 -3.010597,1.95252 -4.293148,4.33221 -1.188497,2.20518 -2.798561,4.5227 -3.57792,5.15005 -1.538775,1.23866 -0.733933,3.46744 1.252135,3.46744 0.677114,0 1.906826,-0.79549 2.732694,-1.76776 z M 422.57803,127.93687 c 0,-4.983 -37.69757,-41.865697 -42.79066,-41.865697 -3.56818,0 -1.42769,3.861084 4.9928,9.006137 9.90955,7.94102 19.70375,17.44001 27.73129,26.89545 4.65336,5.48109 7.66913,8.23881 8.61347,7.87642 0.7992,-0.30668 1.4531,-1.16722 1.4531,-1.91231 z M 97.534627,117.13336 c 5.240693,-5.99051 6.307663,-8.83883 3.311003,-8.83883 -1.947149,0 -12.583638,11.29182 -12.607737,13.38452 -0.04123,3.58099 3.853075,1.67684 9.296734,-4.54569 z M 125.40684,91.712887 c 9.04867,-6.812746 10.81811,-9.154623 7.79379,-10.315166 -1.3261,-0.50887 -6.37602,2.865144 -17.45641,11.663168 -3.08153,2.446792 -4.11483,4.973735 -2.63782,6.450758 0.81424,0.814243 1.10825,0.627843 12.30044,-7.79876 z m 41.28944,-24.783053 c 6.14204,-2.749561 12.34305,-5.294288 13.78003,-5.654948 3.57781,-0.897975 5.4207,-3.187207 3.83906,-4.768858 -1.48047,-1.480472 -7.42169,0.469424 -21.59908,7.08877 -7.24982,3.384897 -9.84899,5.091383 -9.84899,6.466339 0,2.730368 1.48737,2.393581 13.82898,-3.131303 z m 172.54416,-3.521225 c 0,-1.519405 -2.22432,-2.761924 -10.52072,-5.87693 -12.63678,-4.74467 -33.02754,-10.213405 -35.10678,-9.415527 -0.82165,0.315297 -1.34667,1.300579 -1.16671,2.189514 0.2307,1.13962 3.604,2.451881 11.43887,4.449895 10.66621,2.720047 27.64138,8.334809 30.80965,10.190695 2.32059,1.359333 4.54569,0.606656 4.54569,-1.537647 z m 9.31851,-3.544996 c -0.38043,-1.454763 0.96389,-3.240627 5.18548,-6.888647 l 5.69906,-4.924749 4.81706,1.516007 c 5.33452,1.678863 7.08318,0.936589 6.15501,-2.6127 -0.37152,-1.420671 -1.89582,-2.635748 -4.26006,-3.395849 -2.02485,-0.650987 -4.81797,-1.762006 -6.20693,-2.468933 -1.38896,-0.706926 -4.48335,-1.810776 -6.87642,-2.453001 -2.39307,-0.642223 -5.23118,-2.04781 -6.3069,-3.123526 -2.29849,-2.298498 -8.61641,-3.929912 -15.35349,-3.964585 -4.51363,-0.02323 -4.79823,0.132813 -4.79823,2.630794 0,1.615997 -1.38399,4.187395 -3.53553,6.568902 -3.88082,4.295611 -4.49275,7.817436 -1.76777,10.173981 4.3054,3.723262 15.9332,5.255866 17.0859,2.252009 0.87061,-2.268791 -1.10757,-3.824941 -6.3342,-4.982863 -2.5078,-0.555584 -4.41868,-1.464721 -4.2464,-2.020305 0.33635,-1.084694 1.60956,-1.101904 6.37415,-0.08616 1.66675,0.355328 3.64732,0.2359 4.40124,-0.265396 2.05146,-1.36403 0.48977,-4.905006 -2.67972,-6.075976 -2.26191,-0.835666 -1.64743,-0.977776 3.5733,-0.826377 5.22112,0.151409 6.30644,0.48227 6.31346,1.924666 0.005,0.958005 1.44176,2.483007 3.19355,3.388893 l 3.18508,1.647068 -3.20511,2.508368 c -6.54172,5.119671 -8.10375,13.442274 -2.52291,13.442274 2.1015,0 2.52169,-0.391027 2.11038,-1.963899 z M 175.00383,55.810892 c 4.58644,-2.339825 9.1782,-7.476104 9.1782,-10.2666 0,-1.092343 -2.04556,-4.172945 -4.54569,-6.845784 -2.50013,-2.672838 -4.54569,-5.331497 -4.54569,-5.90813 0,-1.518272 -5.02183,-2.548978 -6.48852,-1.331736 -2.37957,1.974876 -6.97544,12.719958 -7.43037,17.372171 -0.37184,3.802402 -0.0566,5.082167 1.6798,6.81853 2.68659,2.68658 7.0881,2.745093 12.15227,0.161549 z m 51.09953,-5.588804 c 6.11142,-0.817915 14.80621,-1.495992 19.32175,-1.506838 8.45796,-0.02031 11.24051,-1.191693 9.50425,-4.001017 -0.68728,-1.112052 -3.17342,-1.255909 -12.49942,-0.723264 -13.99412,0.799263 -27.10544,2.512774 -28.33,3.702435 -0.7545,0.732987 -0.25381,4.049618 0.6075,4.024192 0.15633,-0.0046 5.28449,-0.677594 11.39592,-1.495508 z m -23.78117,-3.858525 c 1.47568,-0.707271 2.56796,-2.084343 2.56796,-3.237485 0,-1.848187 -0.57848,-1.980446 -7.3236,-1.67441 -9.27209,0.420687 -9.5496,-0.893348 -1.76777,-8.370443 6.14868,-5.907892 6.81596,-8.098518 2.99693,-9.838585 -2.33896,-1.065702 -2.9537,-0.781655 -7.15208,3.304652 -7.29927,7.104418 -8.95433,11.74974 -6.05193,16.986286 2.80608,5.062772 9.65485,6.221252 16.73049,2.829985 z M 306.10884,43.13969 c 1.66096,-3.483056 1.77959,-3.535534 7.99272,-3.535534 7.70009,0 9.48152,-1.407575 9.48152,-7.491736 0,-5.666239 -2.63306,-8.165628 -8.60231,-8.165628 -3.79598,0 -4.93865,0.578564 -8.97772,4.545686 -2.54547,2.500128 -4.63155,5.422551 -4.63573,6.494273 -0.004,1.071723 -0.53278,3.40094 -1.17466,5.17604 -2.44125,6.75116 2.84736,9.412281 5.91618,2.976899 z m -91.67056,-2.430658 2.01304,-3.945886 3.77692,1.925581 c 6.3631,3.244098 13.13511,1.763548 12.2897,-2.686873 -0.29086,-1.531131 -1.35211,-2.015143 -4.90807,-2.238451 -7.70699,-0.483986 -7.86789,-0.848165 -2.69504,-6.099981 2.59824,-2.637898 4.72406,-5.23943 4.72406,-5.781182 0,-0.541753 -0.94475,-1.575014 -2.09946,-2.296139 -2.28686,-1.428172 -2.79116,-1.19959 -8.2546,3.741548 -2.60245,2.353657 -2.77792,2.385561 -2.77792,0.505088 0,-4.474798 -5.47065,-6.115669 -6.99781,-2.098929 -0.4878,1.282987 -1.4701,5.803537 -2.1829,10.045667 -0.99598,5.927411 -1.02374,8.310522 -0.11992,10.294204 1.77569,3.897209 4.84287,3.318446 7.232,-1.364647 z m 70.64048,-1.75013 c 1.21514,-2.758452 2.04117,-3.256126 6.35413,-3.82826 9.5777,-1.270527 12.20992,-4.266017 9.89973,-11.265977 -0.92699,-2.808776 -1.86581,-3.61324 -5.2941,-4.536382 -3.39981,-0.915472 -4.78188,-0.829068 -7.50427,0.469153 -1.83534,0.875208 -3.33697,2.034816 -3.33697,2.576904 0,0.542089 -1.16849,2.069106 -2.59666,3.393371 -1.65101,1.530906 -2.69904,3.698228 -2.87781,5.951281 -0.15464,1.948937 -0.61993,4.09166 -1.03398,4.761604 -0.41404,0.669944 -0.46667,2.358177 -0.11694,3.751628 0.90728,3.614868 4.67866,2.876851 6.50687,-1.273322 z m -44.81759,-1.712238 c 0.97649,-3.49317 1.6179,-4.053943 6.54462,-5.7218 7.45383,-2.523373 9.1922,-5.0445 7.16136,-10.386015 -1.48431,-3.904022 -4.01417,-5.778354 -7.7993,-5.778354 -5.06211,0 -6.82451,1.275728 -10.32078,7.470776 -2.71489,4.810512 -3.03308,6.168664 -2.54948,10.882158 0.76401,7.44658 1.07,8.097743 3.63201,7.729343 1.63482,-0.235074 2.54462,-1.38097 3.33157,-4.196108 z m 29.76013,0.522244 c 4.91898,-3.643289 9.11507,-10.186022 9.11507,-14.212651 0,-4.081555 -2.08959,-7.886336 -3.76313,-6.85203 -0.57153,0.353228 -1.53003,2.591697 -2.12999,4.974375 -1.86698,7.414407 -11.80298,14.477519 -10.29591,7.318953 0.6895,-3.275101 0.0121,-8.023477 -1.33693,-9.372582 -2.42473,-2.424727 -4.45629,0.01999 -5.24191,6.307962 -0.7823,6.261222 0.0464,11.008444 2.31807,13.280178 2.00118,2.001166 7.65571,1.280698 11.33473,-1.444205 z"
       style="fill:#800080;stroke:url(#Strips1_1);stroke-width:0;stroke-linecap:round;stroke-miterlimit:4;stroke-dasharray:none;stroke-opacity:1" />
    <path
       transform="matrix(0.26458333,0,0,0.26458333,-33.451045,-19.90787)"
       id="path2829"
       d="m 167.05673,51.611301 c -0.48748,-0.487484 0.10374,-4.401677 0.98895,-6.547392 0.68691,-1.665042 2.42449,-4.582283 2.72521,-4.575404 0.8197,0.01875 1.16825,-0.108003 1.16825,-0.42485 0,-0.909637 0.86928,-0.612783 2.61523,0.893087 2.68174,2.312987 3.20869,2.96306 3.02707,3.734353 -0.46902,1.991848 -4.19885,5.159372 -7.99016,6.785584 -0.76378,0.327607 -2.26199,0.407184 -2.53455,0.134622 z"
       style="fill:#800080;stroke:#000000;stroke-width:0;stroke-linecap:round;stroke-miterlimit:4;stroke-dasharray:none;stroke-opacity:1" />
    <path
       transform="matrix(0.26458333,0,0,0.26458333,-33.451045,-19.90787)"
       id="path2831"
       d="m 241.13839,25.831366 c 0.002,-0.104172 0.15667,-0.643972 0.34352,-1.199556 0.45457,-1.351671 1.94054,-2.154776 3.9362,-2.127361 1.48858,0.02045 3.00584,0.447317 3.07339,0.86467 0.0491,0.303253 -3.37807,1.756687 -5.37306,2.278686 -1.60832,0.420823 -1.98552,0.455791 -1.98005,0.183561 z"
       style="fill:#800080;stroke:#000000;stroke-width:0;stroke-linecap:round;stroke-miterlimit:4;stroke-dasharray:none;stroke-opacity:1" />
    <path
       transform="matrix(0.26458333,0,0,0.26458333,-33.451045,-19.90787)"
       id="path2833"
       d="m 288.51613,28.343189 c -0.0603,-0.0976 0.17445,-0.658554 0.52171,-1.24657 0.49369,-0.835974 0.85271,-1.12872 1.64632,-1.342416 1.1701,-0.315076 2.65616,-0.130237 4.14532,0.515605 1.17698,0.510447 1.5777,0.974592 1.09759,1.271317 -0.72197,0.446198 -7.19773,1.147051 -7.41094,0.802064 z"
       style="fill:#800080;stroke:#000000;stroke-width:0;stroke-linecap:round;stroke-miterlimit:4;stroke-dasharray:none;stroke-opacity:1" />
    <path
       transform="matrix(0.26458333,0,0,0.26458333,-33.451045,-19.90787)"
       id="path2835"
       d="m 310.50585,32.93094 c -0.17881,-0.178813 0.69589,-1.55674 1.30057,-2.048811 0.21729,-0.176819 1.06095,-0.313233 1.91801,-0.310126 1.57458,0.0057 2.9571,0.494123 4.17882,1.476288 l 0.62841,0.505194 -0.70799,0.269176 c -0.75359,0.286513 -7.04647,0.379626 -7.31782,0.108279 z"
       style="fill:#800080;stroke:#000000;stroke-width:0;stroke-linecap:round;stroke-miterlimit:4;stroke-dasharray:none;stroke-opacity:1" />
  </g>
</svg>
