<?xml version="1.0" encoding="UTF-8" standalone="no"?>
<svg
   xmlns:dc="http://purl.org/dc/elements/1.1/"
   xmlns:cc="http://creativecommons.org/ns#"
   xmlns:rdf="http://www.w3.org/1999/02/22-rdf-syntax-ns#"
   xmlns:svg="http://www.w3.org/2000/svg"
   xmlns="http://www.w3.org/2000/svg"
   xmlns:xlink="http://www.w3.org/1999/xlink"
   xmlns:sodipodi="http://sodipodi.sourceforge.net/DTD/sodipodi-0.dtd"
   xmlns:inkscape="http://www.inkscape.org/namespaces/inkscape"
   sodipodi:docname="sockpuppet-solo.svg"
   inkscape:version="1.0 (4035a4fb49, 2020-05-01)"
   id="svg8"
   version="1.1"
   viewBox="0 0 51.838499 97.980052"
   height="97.980049mm"
   width="51.838497mm">
  <defs
     id="defs2">
    <rect
       x="-5.6241841"
       y="-19.342503"
       width="92.207985"
       height="14.833459"
       id="rect853" />
    <linearGradient
       id="linearGradient895"
       inkscape:collect="always">
      <stop
         id="stop891"
         offset="0"
         style="stop-color:#838383;stop-opacity:1;" />
      <stop
         id="stop893"
         offset="1"
         style="stop-color:#838383;stop-opacity:0;" />
    </linearGradient>
    <linearGradient
       gradientUnits="userSpaceOnUse"
       y2="36.404186"
       x2="49.352306"
       y1="30.356565"
       x1="37.535404"
       id="linearGradient897"
       xlink:href="#linearGradient895"
       inkscape:collect="always" />
  </defs>
  <sodipodi:namedview
     inkscape:window-maximized="1"
     inkscape:window-y="1432"
     inkscape:window-x="-8"
     inkscape:window-height="1369"
     inkscape:window-width="3440"
     showgrid="false"
     inkscape:document-rotation="0"
     inkscape:current-layer="layer1"
     inkscape:document-units="mm"
     inkscape:cy="204.78633"
     inkscape:cx="-60.17338"
     inkscape:zoom="1.979899"
     inkscape:pageshadow="2"
     inkscape:pageopacity="0.0"
     borderopacity="1.0"
     bordercolor="#666666"
     pagecolor="#ffffff"
     id="base"
     fit-margin-top="0"
     fit-margin-left="0"
     fit-margin-right="0"
     fit-margin-bottom="0" />
  <metadata
     id="metadata5">
    <rdf:RDF>
      <cc:Work
         rdf:about="">
        <dc:format>image/svg+xml</dc:format>
        <dc:type
           rdf:resource="http://purl.org/dc/dcmitype/StillImage" />
        <dc:title></dc:title>
      </cc:Work>
    </rdf:RDF>
  </metadata>
  <g
     id="layer1"
     inkscape:groupmode="layer"
     inkscape:label="Layer 1"
     transform="translate(-9.3429095,1.0345392)">
    <path
       style="fill:#ffffff;fill-opacity:1;stroke:#000000;stroke-width:1;stroke-linecap:round;stroke-miterlimit:4;stroke-dasharray:none;stroke-opacity:1"
       id="path837-6"
       sodipodi:type="arc"
       sodipodi:cx="36.482292"
       sodipodi:cy="6.5481033"
       sodipodi:rx="7.1494598"
       sodipodi:ry="7.0826426"
       sodipodi:start="0"
       sodipodi:end="6.2829235"
       sodipodi:open="true"
       sodipodi:arc-type="arc"
       d="M 43.631752,6.5481033 A 7.1494598,7.0826426 0 0 1 36.48276,13.630746 7.1494598,7.0826426 0 0 1 29.332832,6.5490305 7.1494598,7.0826426 0 0 1 36.480888,-0.53453909 7.1494598,7.0826426 0 0 1 43.631752,6.546249" />
    <path
       style="fill:#000000;fill-opacity:1;stroke:#000000;stroke-width:1;stroke-linecap:round;stroke-miterlimit:4;stroke-dasharray:none;stroke-opacity:1"
       id="path839-2"
       sodipodi:type="arc"
       sodipodi:cx="39.099632"
       sodipodi:cy="3.0921829"
       sodipodi:rx="2.4054255"
       sodipodi:ry="2.505652"
       sodipodi:start="0"
       sodipodi:end="6.2829235"
       sodipodi:open="true"
       sodipodi:arc-type="arc"
       d="M 41.505058,3.0921829 A 2.4054255,2.505652 0 0 1 39.09979,5.5978348 2.4054255,2.505652 0 0 1 36.694207,3.0925109 2.4054255,2.505652 0 0 1 39.09916,0.58653097 2.4054255,2.505652 0 0 1 41.505058,3.0915269" />
    <path
       sodipodi:nodetypes="ssssssssssssss"
       id="path833"
       d="M 16.036172,92.207986 C 15.217432,89.640391 11.301738,61.040128 9.9779034,48.272946 8.7632132,36.558359 15.929294,28.283568 23.786988,19.510675 30.679135,11.815789 41.947104,5.1393605 52.117558,6.9490076 c 3.907871,0.6953344 8.827959,4.3256664 8.552625,8.2853554 -0.48207,6.932838 -5.211858,2.668921 -7.866286,9.091589 -1.114244,2.69603 -1.908398,5.494759 -0.200452,8.652851 0.46556,0.860848 1.306882,2.150102 4.057694,2.033504 3.323302,-0.140864 2.739513,6.013564 -0.868625,9.2208 -1.075739,0.956213 -8.511712,8.614765 -10.356696,13.764379 -3.638964,10.156869 0.17737,29.234082 -1.336346,32.339613 -1.483827,3.044211 -5.257883,3.634598 -8.520201,4.543581 -4.304747,1.199436 -9.605192,2.192341 -13.93044,1.069078 -2.176333,-0.565192 -4.929551,-1.599523 -5.612659,-3.741772 z"
       style="fill:#dddddd;fill-opacity:1;stroke:#000000;stroke-width:1;stroke-linecap:butt;stroke-linejoin:miter;stroke-miterlimit:4;stroke-dasharray:none;stroke-opacity:1" />
    <path
       sodipodi:nodetypes="ssssssss"
       id="path835"
       d="m 54.971913,35.222656 c 2.474148,1.079699 -4.329301,2.641231 -6.945313,3.307292 -3.385619,0.86201 -6.453977,2.598011 -8.586512,1.693192 -2.239761,-0.950315 -1.941838,-9.172719 -1.335364,-10.764621 1.213156,-3.18435 5.757351,-6.096175 9.296692,-7.52235 2.436046,-0.981603 8.952773,-2.652961 7.357884,-1.005737 -0.77358,0.798964 -3.137824,4.556489 -3.245509,7.460976 -0.157296,4.242583 1.945961,6.171353 3.458122,6.831248 z"
       style="fill:url(#linearGradient897);fill-opacity:1;stroke:#000000;stroke-width:0.264583px;stroke-linecap:butt;stroke-linejoin:miter;stroke-opacity:1" />
    <path
       d="m 28.664657,16.303442 a 7.1494594,7.0826426 0 0 1 -7.148991,7.082643 7.1494594,7.0826426 0 0 1 -7.149928,-7.081716 7.1494594,7.0826426 0 0 1 7.148056,-7.0835694 7.1494594,7.0826426 0 0 1 7.150863,7.0807884"
       sodipodi:arc-type="arc"
       sodipodi:open="true"
       sodipodi:end="6.2829235"
       sodipodi:start="0"
       sodipodi:ry="7.0826426"
       sodipodi:rx="7.1494594"
       sodipodi:cy="16.303442"
       sodipodi:cx="21.515198"
       sodipodi:type="arc"
       id="path837"
       style="fill:#ffffff;fill-opacity:1;stroke:#000000;stroke-width:1;stroke-linecap:round;stroke-miterlimit:4;stroke-dasharray:none;stroke-opacity:1" />
    <path
       d="m 19.844762,14.53278 a 2.4054255,2.505652 0 0 1 -2.405268,2.505652 2.4054255,2.505652 0 0 1 -2.405583,-2.505324 2.4054255,2.505652 0 0 1 2.404953,-2.50598 2.4054255,2.505652 0 0 1 2.405898,2.504996"
       sodipodi:arc-type="arc"
       sodipodi:open="true"
       sodipodi:end="6.2829235"
       sodipodi:start="0"
       sodipodi:ry="2.505652"
       sodipodi:rx="2.4054255"
       sodipodi:cy="14.53278"
       sodipodi:cx="17.439337"
       sodipodi:type="arc"
       id="path839"
       style="fill:#000000;fill-opacity:1;stroke:#000000;stroke-width:1;stroke-linecap:round;stroke-miterlimit:4;stroke-dasharray:none;stroke-opacity:1" />
    <path
       d="m 15.617577,15.213541 a 0.45128193,0.64027005 0 0 1 -0.451252,0.64027 0.45128193,0.64027005 0 0 1 -0.451312,-0.640186 0.45128193,0.64027005 0 0 1 0.451193,-0.640354 0.45128193,0.64027005 0 0 1 0.451371,0.640102"
       sodipodi:arc-type="arc"
       sodipodi:open="true"
       sodipodi:end="6.2829235"
       sodipodi:start="0"
       sodipodi:ry="0.64027005"
       sodipodi:rx="0.45128193"
       sodipodi:cy="15.213541"
       sodipodi:cx="15.166295"
       sodipodi:type="arc"
       id="path870"
       style="fill:#ffffff;fill-opacity:1;stroke:#000000;stroke-width:0;stroke-linecap:round;stroke-miterlimit:4;stroke-dasharray:none;stroke-opacity:1" />
    <path
       style="fill:#ffffff;fill-opacity:1;stroke:#000000;stroke-width:0;stroke-linecap:round;stroke-miterlimit:4;stroke-dasharray:none;stroke-opacity:1"
       id="path870-4"
       sodipodi:type="arc"
       sodipodi:cx="36.45108"
       sodipodi:cy="3.3545387"
       sodipodi:rx="0.45128196"
       sodipodi:ry="0.64027005"
       sodipodi:start="0"
       sodipodi:end="6.2829235"
       sodipodi:open="true"
       sodipodi:arc-type="arc"
       d="m 36.902362,3.3545387 a 0.45128196,0.64027005 0 0 1 -0.451252,0.64027 0.45128196,0.64027005 0 0 1 -0.451312,-0.6401862 0.45128196,0.64027005 0 0 1 0.451194,-0.6403539 0.45128196,0.64027005 0 0 1 0.45137,0.6401025" />
    <path
       sodipodi:nodetypes="sssssss"
       id="path887"
       d="m 11.067267,54.050593 c 0.06451,1.765239 3.000376,-1.452072 4.397331,-2.533158 2.410584,-1.865521 3.463453,-4.902265 3.943041,-6.994528 0.685204,-2.989286 0.280034,-7.052119 -1.391701,-9.122031 -1.128233,-1.396959 -2.001258,-4.102641 -3.173657,-3.851328 -0.715799,0.153437 -3.064725,5.621815 -3.952046,8.99937 -1.103324,4.199765 0.09298,11.201669 0.177032,13.501675 z"
       style="fill:#b1b1b1;fill-opacity:1;stroke:#000000;stroke-width:0.265;stroke-linecap:butt;stroke-linejoin:miter;stroke-miterlimit:4;stroke-dasharray:1.06, 0.53, 0.265, 0.53;stroke-dashoffset:0;stroke-opacity:1" />
    <path
       sodipodi:nodetypes="cssc"
       id="path889"
       d="m 14.274601,78.365324 c 3.340869,0.133636 6.714484,0.742312 10.022607,0.267269 3.848277,-0.552608 7.629508,-1.235261 10.423512,-1.202711 2.918429,0.034 8.418988,-2.405428 8.418988,-2.405428"
       style="fill:none;stroke:#000000;stroke-width:0.264583;stroke-linecap:butt;stroke-linejoin:miter;stroke-miterlimit:4;stroke-dasharray:1.05833, 0.529166, 0.264583, 0.529166;stroke-dashoffset:0;stroke-opacity:1" />
    <path
       id="path901"
       d="m 19.182291,80.73807 0.519718,12.981091"
       style="fill:none;stroke:#000000;stroke-width:0.562611;stroke-linecap:butt;stroke-linejoin:miter;stroke-miterlimit:4;stroke-dasharray:0, 0.562611, 1.12522, 1.68783, 2.25044, 2.81305, 3.37567, 3.93828, 4.50089, 5.0635, 5.62611, 6.18872, 6.75133, 7.31394, 7.87655;stroke-dashoffset:0;stroke-opacity:1" />
    <path
       id="path903"
       d="M 23.906994,80.259502 24.946428,94.79593"
       style="fill:none;stroke:#000000;stroke-width:0.562611;stroke-linecap:butt;stroke-linejoin:miter;stroke-miterlimit:4;stroke-dasharray:0, 0.562611, 1.12522, 1.68783, 2.25044, 2.81305, 3.37567, 3.93828, 4.50089, 5.0635, 5.62611, 6.18872, 6.75133, 7.31394, 7.87655;stroke-dashoffset:0;stroke-opacity:1" />
    <path
       id="path905"
       d="m 30.00186,80.618427 1.370164,12.801629"
       style="fill:none;stroke:#000000;stroke-width:0.562611;stroke-linecap:butt;stroke-linejoin:miter;stroke-miterlimit:4;stroke-dasharray:0, 0.562611, 1.12522, 1.68783, 2.25044, 2.81305, 3.37567, 3.93828, 4.50089, 5.0635, 5.62611, 6.18872, 6.75133, 7.31394, 7.87655;stroke-dashoffset:0;stroke-opacity:1" />
    <path
       id="path907"
       d="m 34.773809,78.345242 2.504093,15.194454"
       style="fill:none;stroke:#000000;stroke-width:0.562611;stroke-linecap:butt;stroke-linejoin:miter;stroke-miterlimit:4;stroke-dasharray:0, 0.562611, 1.12522, 1.68783, 2.25044, 2.81305, 3.37567, 3.93828, 4.50089, 5.0635, 5.62611, 6.18872, 6.75133, 7.31394, 7.87655;stroke-dashoffset:0;stroke-opacity:1" />
    <path
       id="path909"
       d="m 39.970982,77.567572 1.511903,13.459655"
       style="fill:none;stroke:#000000;stroke-width:0.562611;stroke-linecap:butt;stroke-linejoin:miter;stroke-miterlimit:4;stroke-dasharray:0, 0.562611, 1.12522, 1.68783, 2.25044, 2.81305, 3.37567, 3.93828, 4.50089, 5.0635, 5.62611, 6.18872, 6.75133, 7.31394, 7.87655;stroke-dashoffset:0;stroke-opacity:1" />
  </g>
</svg>
